<?xml version="1.0" encoding="UTF-8"?>
<!-- Generator: visioncortex VTracer 0.6.3 -->
<svg version="1.1" xmlns="http://www.w3.org/2000/svg" width="1280" height="1280">
<path d="M0 0 C0.84 -0.01 1.68 -0.01 2.55 -0.02 C4.34 -0.03 6.12 -0.03 7.91 -0.04 C10.62 -0.05 13.33 -0.08 16.04 -0.11 C17.77 -0.12 19.51 -0.12 21.25 -0.12 C22.05 -0.14 22.85 -0.15 23.68 -0.16 C29.24 -0.14 33.38 0.88 38.46 3.2 C39.94 5.26 39.94 5.26 40.64 7.64 C40.94 8.53 41.23 9.42 41.53 10.34 C41.99 11.76 41.99 11.76 42.46 13.2 C43.28 15.15 44.11 17.08 44.96 19.02 C47.17 24.29 48.87 29.63 50.49 35.11 C51.62 38.74 53 42.22 54.45 45.73 C60.46 60.4 60.46 60.4 60.46 67.2 C58.71 70.2 58.71 70.2 56.46 72.2 C55.47 72.2 54.48 72.2 53.46 72.2 C53.46 72.86 53.46 73.52 53.46 74.2 C51.91 75.54 51.91 75.54 49.71 77.14 C44.98 80.68 40.71 84.57 36.44 88.65 C32.67 92.2 32.67 92.2 30.46 92.2 C30.13 92.86 29.8 93.52 29.46 94.2 C27.21 94.27 27.21 94.27 24.46 93.2 C20.57 87.54 19.25 80.17 17.47 73.66 C16.31 69.72 14.88 65.97 13.29 62.19 C12.61 60.56 12.02 58.88 11.46 57.2 C9.34 61.66 7.89 66.07 6.58 70.83 C4.93 76.8 2.91 82.52 0.61 88.27 C-1.29 93.13 -2.82 98.04 -4.17 103.08 C-4.43 104.04 -4.69 105.01 -4.96 106.01 C-5.25 107.09 -5.25 107.09 -5.54 108.2 C-3.23 109.52 -0.92 110.84 1.46 112.2 C2.35 111 2.35 111 3.27 109.77 C5.46 107.2 5.46 107.2 8.46 106.2 C14.07 106.25 18.58 107.32 23.46 110.2 C23.87 109.63 24.28 109.05 24.7 108.45 C25.24 107.71 25.78 106.97 26.33 106.2 C26.87 105.46 27.4 104.72 27.95 103.95 C28.45 103.38 28.94 102.8 29.46 102.2 C30.12 102.2 30.78 102.2 31.46 102.2 C31.7 101.65 31.95 101.09 32.21 100.52 C34.51 96.26 37.35 92.81 41.46 90.2 C42.12 90.2 42.78 90.2 43.46 90.2 C43.79 89.21 44.12 88.22 44.46 87.2 C45.12 87.2 45.78 87.2 46.46 87.2 C46.46 86.54 46.46 85.88 46.46 85.2 C47.8 84.02 47.8 84.02 49.68 82.7 C50.38 82.21 51.07 81.72 51.79 81.22 C52.55 80.7 53.3 80.18 54.08 79.64 C54.86 79.1 55.63 78.56 56.43 78 C62.13 74.06 67.92 70.28 73.77 66.56 C78.17 63.76 82.54 60.89 86.89 58.02 C88.01 57.28 88.01 57.28 89.15 56.54 C102.46 47.72 110.38 37.86 114.46 22.2 C114.94 18.73 115.2 15.38 115.25 11.88 C115.46 9.14 116.06 7.54 117.46 5.2 C122.01 5.7 122.01 5.7 123.97 7.93 C132.42 20.86 134.64 37.18 132.46 52.2 C132.34 53.2 132.23 54.19 132.11 55.21 C130.11 70.08 122.99 85.57 113.46 97.2 C112.8 97.2 112.14 97.2 111.46 97.2 C111.12 97.98 111.12 97.98 110.77 98.77 C107.78 104.32 104.47 108.35 99.46 112.2 C98.09 113.85 96.76 115.51 95.46 117.2 C93.83 119.02 93.83 119.02 92.46 120.2 C91.8 120.2 91.14 120.2 90.46 120.2 C90.46 120.86 90.46 121.52 90.46 122.2 C88.81 123.56 87.14 124.89 85.46 126.2 C84.25 127.41 84.25 127.41 83.02 128.64 C81.12 130.54 79.28 132.21 77.21 133.89 C74.44 135.91 74.44 135.91 73.46 138.2 C72.8 138.2 72.14 138.2 71.46 138.2 C71.13 139.19 70.8 140.18 70.46 141.2 C69.8 141.2 69.14 141.2 68.46 141.2 C68.13 142.19 67.8 143.18 67.46 144.2 C66.8 144.2 66.14 144.2 65.46 144.2 C63.21 148.51 61.48 153.02 59.68 157.52 C58.46 160.2 58.46 160.2 56.46 162.2 C56.2 164.32 56.2 164.32 56.3 166.74 C56.31 167.63 56.32 168.52 56.33 169.44 C56.36 170.84 56.36 170.84 56.39 172.27 C56.43 174.11 56.46 175.96 56.48 177.8 C56.5 178.62 56.52 179.44 56.54 180.29 C56.46 182.2 56.46 182.2 55.46 183.2 C48.11 184.04 41.86 181.84 35.46 178.2 C35.13 177.21 34.8 176.22 34.46 175.2 C33.71 175.51 32.97 175.82 32.21 176.14 C27.99 177.77 24.52 178.33 19.99 178.34 C18.94 178.34 17.9 178.34 16.82 178.34 C15.73 178.34 14.64 178.33 13.52 178.33 C12.43 178.33 11.35 178.34 10.23 178.34 C9.18 178.34 8.14 178.34 7.05 178.34 C6.1 178.33 5.15 178.33 4.16 178.33 C1.49 178.2 -0.94 177.79 -3.54 177.2 C-4.73 177.01 -4.73 177.01 -5.94 176.81 C-13.58 175.49 -19.41 172.94 -25.54 168.2 C-25.88 169.03 -26.22 169.87 -26.57 170.72 C-27.01 171.81 -27.46 172.9 -27.92 174.02 C-28.36 175.09 -28.8 176.17 -29.25 177.29 C-30.54 180.2 -30.54 180.2 -32.54 183.2 C-35.67 183.89 -35.67 183.89 -38.54 184.2 C-38.54 183.54 -38.54 182.88 -38.54 182.2 C-39.53 182.86 -40.52 183.52 -41.54 184.2 C-44.43 184.45 -44.43 184.45 -47.93 184.43 C-49.2 184.43 -50.47 184.43 -51.77 184.43 C-52.43 184.42 -53.09 184.42 -53.77 184.41 C-55.77 184.39 -57.77 184.39 -59.77 184.39 C-65.81 184.36 -71.57 184.16 -77.54 183.2 C-78.79 181.27 -78.79 181.27 -79.54 178.2 C-78.54 175.05 -77.01 172.16 -75.54 169.2 C-72.82 162.93 -72.82 162.93 -72.54 156.2 C-74.07 154.26 -74.07 154.26 -76.17 152.58 C-80.99 148.06 -83.7 143.11 -86.54 137.2 C-86.93 136.44 -87.33 135.67 -87.73 134.89 C-94.9 120.15 -94.71 98.89 -90.54 83.2 C-89.34 80.83 -89.34 80.83 -87.54 79.2 C-82.01 78.17 -77.99 80.61 -73.29 83.2 C-72.54 83.61 -71.8 84.01 -71.02 84.43 C-65.76 87.34 -61.06 90.6 -56.52 94.57 C-54.61 96.15 -52.8 97.19 -50.54 98.2 C-48.08 92.93 -46.12 87.82 -44.54 82.2 C-43.93 80.63 -43.31 79.07 -42.67 77.52 C-41.14 73.78 -39.79 70.04 -38.54 66.2 C-37.35 62.54 -36.08 58.95 -34.61 55.39 C-32.63 50.58 -31.01 45.67 -29.4 40.74 C-28.21 37.13 -26.94 33.59 -25.48 30.08 C-23.91 26.3 -22.7 22.5 -21.54 18.58 C-17.24 4.33 -17.24 4.33 -11.54 1.2 C-7.69 -0.08 -4.02 0.02 0 0 Z M61.46 103.2 C61.46 103.86 61.46 104.52 61.46 105.2 C62.12 105.2 62.78 105.2 63.46 105.2 C63.46 104.54 63.46 103.88 63.46 103.2 C62.8 103.2 62.14 103.2 61.46 103.2 Z M59.46 105.2 C57.15 107.51 54.84 109.82 52.46 112.2 C53.12 112.86 53.78 113.52 54.46 114.2 C55.83 112.91 57.16 111.58 58.46 110.2 C58.46 109.54 58.46 108.88 58.46 108.2 C59.12 108.2 59.78 108.2 60.46 108.2 C60.13 107.21 59.8 106.22 59.46 105.2 Z M-45.54 181.2 C-45.54 181.53 -45.54 181.86 -45.54 182.2 C-43.89 182.2 -42.24 182.2 -40.54 182.2 C-40.54 181.87 -40.54 181.54 -40.54 181.2 C-42.19 181.2 -43.84 181.2 -45.54 181.2 Z M-70.54 182.2 C-70.54 182.53 -70.54 182.86 -70.54 183.2 C-65.26 183.2 -59.98 183.2 -54.54 183.2 C-54.54 182.87 -54.54 182.54 -54.54 182.2 C-59.82 182.2 -65.1 182.2 -70.54 182.2 Z " fill="#427123" transform="translate(713.54296875,482.796875)"/>
<path d="M0 0 C24.25 0.5 24.25 0.5 49 1 C49 1.66 49 2.32 49 3 C49.99 3.33 50.98 3.66 52 4 C51.7 8.79 49.28 11.54 46.38 15.13 C44.81 17.06 44.81 17.06 44 20 C43.34 20 42.68 20 42 20 C41.73 20.74 41.46 21.47 41.19 22.23 C40.03 24.93 38.75 26.95 36.99 29.29 C36.4 30.08 35.81 30.87 35.2 31.69 C34.27 32.93 34.27 32.93 33.31 34.19 C32.04 35.89 30.77 37.6 29.5 39.3 C28.89 40.12 28.28 40.93 27.66 41.77 C23.82 46.93 20.14 52.2 16.69 57.62 C16.13 58.41 15.57 59.19 15 60 C14.34 60 13.68 60 13 60 C12.82 60.89 12.82 60.89 12.64 61.8 C11.63 65.27 9.24 67.8 7 70.56 C3.4 74.92 3.4 74.92 1 80 C0.34 80 -0.32 80 -1 80 C-1.35 83.24 -1.22 84.67 0.61 87.43 C1.32 88.24 2.02 89.04 2.75 89.88 C5.6 93.16 7.83 96.39 9.93 100.2 C12.1 103.86 14.88 107.08 17.55 110.37 C21.56 115.42 21.56 115.42 22 119 C22.66 119 23.32 119 24 119 C24.56 120.01 25.11 121.02 25.69 122.06 C27.23 124.78 28.9 127.3 30.75 129.81 C33 133 33 133 33 135 C33.99 135.33 34.98 135.66 36 136 C36 136.99 36 137.98 36 139 C36.66 139 37.32 139 38 139 C39.62 141.27 39.62 141.27 41.44 144.25 C43.94 148.34 43.94 148.34 46.72 152.23 C48 154 48 154 48 156 C48.66 156 49.32 156 50 156 C54.79 164.13 54.79 164.13 56 168 C55.67 168.66 55.34 169.32 55 170 C47.38 170.2 39.75 170.38 32.13 170.55 C28.59 170.62 25.05 170.7 21.51 170.8 C17.44 170.91 13.37 170.99 9.3 171.07 C7.39 171.13 7.39 171.13 5.45 171.19 C4.27 171.21 3.09 171.23 1.87 171.25 C0.83 171.27 -0.21 171.3 -1.28 171.32 C-4.42 170.95 -5.8 170.26 -8 168 C-8 167.01 -8 166.02 -8 165 C-8.59 164.77 -9.19 164.54 -9.8 164.3 C-12.59 162.65 -13.54 160.96 -15.19 158.19 C-17.77 153.96 -20.45 149.86 -23.31 145.81 C-26.74 140.94 -29.94 135.95 -33.06 130.88 C-36.58 125.16 -40.26 119.69 -44.31 114.33 C-49 107.86 -49 107.86 -49 105 C-49.99 104.67 -50.98 104.34 -52 104 C-52.01 104.81 -52.02 105.62 -52.03 106.46 C-52.13 114.1 -52.23 121.74 -52.34 129.37 C-52.39 133.3 -52.45 137.23 -52.5 141.15 C-52.54 144.94 -52.6 148.73 -52.65 152.51 C-52.67 153.96 -52.69 155.41 -52.71 156.86 C-52.73 158.88 -52.76 160.9 -52.79 162.92 C-52.81 164.07 -52.83 165.22 -52.84 166.41 C-53 169 -53 169 -54 170 C-55.59 170.1 -57.19 170.13 -58.78 170.13 C-60.31 170.13 -60.31 170.13 -61.86 170.14 C-62.97 170.14 -64.08 170.13 -65.22 170.13 C-66.35 170.13 -67.48 170.13 -68.64 170.14 C-71.03 170.14 -73.42 170.13 -75.81 170.13 C-79.48 170.13 -83.16 170.13 -86.83 170.14 C-89.15 170.14 -91.46 170.13 -93.78 170.13 C-94.89 170.13 -96 170.14 -97.14 170.14 C-98.15 170.14 -99.17 170.13 -100.22 170.13 C-101.12 170.13 -102.02 170.13 -102.95 170.13 C-105 170 -105 170 -106 169 C-106.1 166.87 -106.12 164.74 -106.12 162.62 C-106.12 161.94 -106.12 161.27 -106.12 160.57 C-106.12 158.29 -106.12 156.02 -106.11 153.74 C-106.11 152.11 -106.11 150.49 -106.11 148.86 C-106.11 144.44 -106.11 140.01 -106.1 135.58 C-106.1 130.96 -106.09 126.34 -106.09 121.71 C-106.09 112.96 -106.08 104.2 -106.07 95.44 C-106.06 85.47 -106.06 75.5 -106.05 65.53 C-106.04 45.02 -106.02 24.51 -106 4 C-105.01 3.67 -104.02 3.34 -103 3 C-103 2.34 -103 1.68 -103 1 C-96.83 0.95 -90.65 0.91 -84.48 0.89 C-82.38 0.88 -80.28 0.87 -78.18 0.85 C-75.16 0.82 -72.13 0.81 -69.11 0.8 C-67.71 0.79 -67.71 0.79 -66.27 0.77 C-57.31 0.77 -57.31 0.77 -54 3 C-53.03 6.55 -52.85 9.99 -52.78 13.66 C-52.76 14.77 -52.73 15.88 -52.71 17.03 C-52.69 18.22 -52.67 19.41 -52.65 20.63 C-52.63 21.86 -52.6 23.09 -52.58 24.36 C-52.53 26.95 -52.49 29.54 -52.44 32.14 C-52.38 36.12 -52.3 40.1 -52.22 44.07 C-52.17 46.59 -52.13 49.11 -52.09 51.63 C-52.06 52.83 -52.04 54.02 -52.01 55.25 C-52 56.36 -51.98 57.46 -51.96 58.6 C-51.95 59.57 -51.93 60.54 -51.91 61.55 C-52 64 -52 64 -53 67 C-49.13 65.71 -48.6 64.19 -46.5 60.75 C-45.91 59.8 -45.32 58.84 -44.72 57.86 C-43.58 55.97 -42.48 54.06 -41.41 52.14 C-40.94 51.43 -40.48 50.73 -40 50 C-39.34 50 -38.68 50 -38 50 C-37.61 48.93 -37.61 48.93 -37.22 47.84 C-35.92 44.81 -34.35 42.31 -32.52 39.58 C-31.83 38.55 -31.14 37.53 -30.43 36.47 C-29.71 35.41 -28.99 34.34 -28.25 33.25 C-27.55 32.2 -26.84 31.16 -26.12 30.08 C-24.73 28.02 -23.35 25.96 -21.96 23.91 C-20.69 22.03 -19.44 20.14 -18.22 18.23 C-17.69 17.41 -17.16 16.58 -16.61 15.73 C-16.15 15.01 -15.69 14.28 -15.22 13.54 C-14.82 13.03 -14.41 12.52 -14 12 C-13.34 12 -12.68 12 -12 12 C-11.77 11.28 -11.55 10.56 -11.31 9.81 C-9.7 6.37 -7.95 4.4 -5 2 C-2.19 1.69 -2.19 1.69 0 2 C0 1.34 0 0.68 0 0 Z " fill="#E54A8F" transform="translate(361,492)"/>
<path d="M0 0 C1.38 -0.01 1.38 -0.01 2.78 -0.02 C4.25 -0.02 4.25 -0.02 5.75 -0.02 C6.77 -0.03 7.79 -0.03 8.84 -0.03 C11 -0.04 13.15 -0.04 15.3 -0.04 C18.59 -0.04 21.87 -0.06 25.15 -0.08 C27.25 -0.08 29.34 -0.08 31.44 -0.09 C32.42 -0.09 33.39 -0.1 34.4 -0.11 C47.02 -0.06 47.02 -0.06 51.23 4.15 C51.91 5.98 52.53 7.84 53.1 9.71 C54.3 13.45 55.55 17.03 57.23 20.58 C58.79 23.96 59.93 27.32 60.98 30.9 C63.05 37.9 65.66 44.66 68.3 51.47 C70.44 57.03 72.47 62.59 74.24 68.28 C75.12 70.83 76.09 73.32 77.1 75.82 C79.22 81.07 81.18 86.38 83.1 91.71 C83.45 92.66 83.8 93.62 84.15 94.6 C87.46 103.74 90.71 112.9 93.9 122.08 C96.79 130.44 96.79 130.44 100.23 138.58 C103.14 144.88 105.1 151.56 107.23 158.15 C107.61 159.18 107.99 160.22 108.38 161.29 C109.22 164.1 109.3 166.24 109.23 169.15 C101.59 169.36 93.96 169.56 86.32 169.74 C83.72 169.8 81.13 169.87 78.53 169.94 C74.8 170.05 71.07 170.14 67.33 170.22 C65.59 170.28 65.59 170.28 63.8 170.33 C62.18 170.36 62.18 170.36 60.53 170.39 C59.57 170.42 58.62 170.44 57.64 170.47 C55.23 170.15 55.23 170.15 53.47 168.81 C51.62 166.33 51 163.73 50.17 160.77 C48.82 156.06 48.82 156.06 47.11 151.48 C46.23 149.15 46.23 149.15 46.23 145.15 C45.52 145.16 44.81 145.17 44.08 145.18 C43.16 145.19 42.24 145.2 41.29 145.21 C40.37 145.22 39.46 145.23 38.51 145.24 C36.23 145.15 36.23 145.15 35.23 144.15 C32.66 144.04 30.12 144.01 27.55 144.01 C26.77 144.01 26 144.01 25.21 144.01 C23.58 144.01 21.94 144.01 20.31 144.01 C17.81 144.02 15.3 144.01 12.8 144.01 C11.21 144.01 9.63 144.01 8.05 144.01 C7.29 144.01 6.54 144.01 5.77 144.01 C1.87 143.95 1.87 143.95 -1.77 145.15 C-4.1 145.19 -6.44 145.19 -8.77 145.15 C-9.03 146.25 -9.03 146.25 -9.29 147.38 C-13.96 166.94 -13.96 166.94 -18.77 170.15 C-21.14 170.35 -21.14 170.35 -23.98 170.28 C-25.57 170.25 -25.57 170.25 -27.19 170.22 C-28.34 170.19 -29.48 170.15 -30.66 170.12 C-31.83 170.1 -33 170.07 -34.21 170.05 C-37.96 169.96 -41.71 169.87 -45.46 169.77 C-48 169.71 -50.54 169.65 -53.08 169.6 C-59.31 169.46 -65.54 169.31 -71.77 169.15 C-71.63 167.54 -71.48 165.94 -71.34 164.34 C-71.22 163.01 -71.22 163.01 -71.09 161.64 C-70.7 158.56 -69.77 156.08 -68.46 153.27 C-66.64 149.21 -65.07 145.19 -63.71 140.96 C-62.57 137.43 -61.35 134.07 -59.77 130.71 C-58.18 127.27 -57.03 123.84 -55.96 120.21 C-54.11 113.97 -51.81 108 -49.42 101.96 C-47.47 97.05 -45.71 92.11 -44.08 87.08 C-42.56 82.41 -40.87 78 -38.79 73.55 C-37.23 69.87 -36.06 66.07 -34.83 62.27 C-33.2 57.28 -31.34 52.4 -29.4 47.52 C-26.38 39.94 -23.74 32.26 -21.26 24.49 C-19.65 19.53 -17.82 14.78 -15.63 10.05 C-14.92 8.47 -14.3 6.84 -13.71 5.21 C-12.77 3.15 -12.77 3.15 -9.77 1.15 C-6.48 0.3 -3.39 0.02 0 0 Z M17.23 64.15 C10.4 83.41 10.4 83.41 5.23 103.15 C14.14 103.15 23.05 103.15 32.23 103.15 C30.43 96.56 28.91 91.2 26.33 85.11 C24.59 80.43 23.32 75.6 22.07 70.77 C21.55 68.87 20.9 67 20.23 65.15 C19.24 64.82 18.25 64.49 17.23 64.15 Z " fill="#E54A8F" transform="translate(1117.77099609375,492.854736328125)"/>
<path d="M0 0 C1.63 0.03 1.63 0.03 3.29 0.07 C5.59 0.12 7.88 0.19 10.18 0.26 C13.68 0.37 17.17 0.44 20.68 0.52 C22.91 0.57 25.14 0.63 27.38 0.69 C28.42 0.71 29.46 0.74 30.53 0.76 C43.78 1.2 43.78 1.2 47.82 5.24 C48.48 7.18 49.08 9.14 49.63 11.12 C51.28 16.69 53.3 21.94 55.6 27.27 C57.19 31.14 58.48 35.07 59.73 39.06 C60.65 41.74 61.66 44.34 62.73 46.96 C64.81 52.11 66.55 57.33 68.26 62.62 C70.48 69.4 72.85 76 75.7 82.55 C77.32 86.44 78.56 90.44 79.86 94.45 C80.72 96.95 81.7 99.29 82.82 101.68 C84.95 106.27 86.32 111.01 87.75 115.85 C89.16 120.33 90.87 124.67 92.6 129.04 C93.79 132.17 94.85 135.31 95.88 138.49 C97.02 142 98.26 145.34 99.82 148.68 C106.75 163.75 106.75 163.75 104.82 170.24 C97.33 170.46 89.83 170.66 82.34 170.83 C79.79 170.9 77.24 170.97 74.69 171.04 C71.03 171.15 67.37 171.23 63.71 171.32 C61.99 171.37 61.99 171.37 60.24 171.43 C58.65 171.46 58.65 171.46 57.03 171.49 C56.09 171.52 55.16 171.54 54.19 171.56 C51.82 171.24 51.82 171.24 50.05 169.87 C48.48 167.8 47.93 165.93 47.24 163.43 C46.97 162.5 46.69 161.57 46.41 160.61 C45.85 158.66 45.31 156.7 44.78 154.74 C44.5 153.81 44.22 152.88 43.93 151.93 C43.69 151.08 43.45 150.23 43.21 149.35 C41.9 146.94 41.9 146.94 38.75 145.96 C34.38 145.16 30.32 144.97 25.89 145.01 C24.65 145.01 24.65 145.01 23.38 145.01 C21.64 145.02 19.91 145.02 18.17 145.04 C15.5 145.05 12.83 145.06 10.16 145.06 C8.47 145.06 6.78 145.07 5.08 145.07 C4.28 145.08 3.48 145.08 2.66 145.08 C-1.39 145.02 -1.39 145.02 -5.18 146.24 C-7.51 146.28 -9.85 146.29 -12.18 146.24 C-12.36 146.92 -12.54 147.6 -12.73 148.3 C-13.26 150.25 -13.79 152.2 -14.33 154.14 C-14.87 156.11 -15.4 158.08 -15.91 160.06 C-16.14 160.92 -16.38 161.79 -16.62 162.68 C-16.82 163.46 -17.03 164.24 -17.24 165.05 C-18.45 167.86 -19.82 169.29 -22.18 171.24 C-24.67 171.69 -24.67 171.69 -27.5 171.6 C-28.56 171.58 -29.62 171.56 -30.71 171.54 C-31.85 171.5 -32.99 171.46 -34.16 171.41 C-35.33 171.39 -36.51 171.36 -37.71 171.33 C-41.45 171.24 -45.19 171.11 -48.93 170.99 C-51.46 170.92 -54 170.86 -56.54 170.79 C-62.75 170.63 -68.97 170.45 -75.18 170.24 C-76.66 165.66 -74.98 162.5 -73.18 158.24 C-72.52 156.62 -71.87 155 -71.21 153.37 C-70.88 152.53 -70.54 151.69 -70.19 150.82 C-68.55 146.64 -67.08 142.42 -65.62 138.18 C-65.33 137.35 -65.04 136.52 -64.74 135.66 C-64.17 134 -63.59 132.34 -63.02 130.68 C-56.74 112.49 -56.74 112.49 -54.24 106.43 C-50.54 97.39 -47.53 88.05 -44.34 78.82 C-43.56 76.56 -42.78 74.31 -41.99 72.05 C-41.77 71.4 -41.54 70.74 -41.31 70.06 C-40.09 66.58 -38.74 63.23 -37.21 59.88 C-35.06 55.12 -33.45 50.27 -31.87 45.3 C-28.88 36.14 -25.57 27.16 -21.97 18.22 C-21.22 16.36 -20.51 14.48 -19.8 12.6 C-19.19 11 -19.19 11 -18.55 9.37 C-18.21 8.46 -17.87 7.56 -17.52 6.62 C-13.34 -0.81 -7.66 -0.27 0 0 Z M13.82 64.24 C13.56 65.01 13.31 65.78 13.04 66.58 C11.06 72.54 9.07 78.5 7.08 84.46 C6.7 85.62 6.31 86.78 5.91 87.98 C5.24 89.99 4.56 91.99 3.86 93.99 C3.58 94.77 3.31 95.56 3.03 96.37 C2.79 97.03 2.56 97.7 2.31 98.38 C1.65 100.57 1.65 100.57 1.82 104.24 C10.73 104.24 19.64 104.24 28.82 104.24 C28.13 102.18 27.45 100.12 26.74 98 C22.64 85.7 22.64 85.7 21.97 83.68 C21.52 82.35 21.08 81.03 20.64 79.71 C19.7 76.91 18.78 74.11 17.9 71.3 C17.26 69.26 16.55 67.25 15.82 65.24 C15.16 64.91 14.5 64.58 13.82 64.24 Z " fill="#E54A8F" transform="translate(102.1796875,491.7578125)"/>
<path d="M0 0 C1.26 0.01 2.52 0.01 3.82 0.02 C17.47 0.49 29.72 6.18 40 15 C40.67 15.57 41.33 16.13 42.02 16.71 C51.94 25.88 55.93 37.38 57.08 50.5 C57 53 57 53 55 55 C52.77 55.3 52.77 55.3 49.97 55.37 C48.92 55.4 47.88 55.43 46.8 55.46 C45.09 55.49 45.09 55.49 43.35 55.52 C41.61 55.56 41.61 55.56 39.82 55.6 C37.36 55.65 34.89 55.7 32.42 55.74 C28.65 55.81 24.87 55.91 21.09 56.01 C18.7 56.05 16.31 56.1 13.91 56.14 C12.78 56.18 11.65 56.21 10.48 56.24 C9.43 56.25 8.37 56.27 7.29 56.28 C5.9 56.31 5.9 56.31 4.48 56.34 C1.47 55.93 0.17 55.1 -2 53 C-3.02 50.68 -4.02 48.34 -5 46 C-8.47 43.69 -9.92 43.49 -14 44 C-16.14 45.4 -16.14 45.4 -17 48 C-16.94 50.77 -16.5 53.26 -16 56 C-15.36 56.23 -14.72 56.45 -14.06 56.69 C-10.67 58.14 -7.56 59.91 -4.38 61.78 C-1.65 63.18 1.07 64.08 4 65 C20.42 70.36 38.5 77.52 50 91 C50 91.66 50 92.32 50 93 C50.66 93 51.32 93 52 93 C59.98 105.97 61.41 117.49 58.28 132.43 C54.71 145.51 46.46 156.25 34.88 163.31 C33.26 164.22 31.63 165.12 30 166 C28.97 166.58 27.94 167.15 26.88 167.75 C23.29 169.31 19.81 170.13 16 171 C15.01 171.33 14.02 171.66 13 172 C10.18 172.11 7.39 172.16 4.57 172.17 C3.74 172.17 2.92 172.17 2.06 172.18 C0.31 172.18 -1.44 172.19 -3.19 172.19 C-5.86 172.19 -8.53 172.21 -11.2 172.22 C-12.9 172.23 -14.6 172.23 -16.3 172.23 C-17.1 172.24 -17.9 172.24 -18.72 172.25 C-22.96 172.23 -26.11 171.89 -30 170 C-31.35 169.72 -32.7 169.47 -34.06 169.25 C-40.21 167.97 -45.5 164.93 -51 162 C-52.33 161.33 -53.66 160.66 -55 160 C-55 159.34 -55 158.68 -55 158 C-55.84 157.66 -55.84 157.66 -56.69 157.31 C-66.11 151.96 -72.51 140.89 -75.68 130.83 C-76.68 127.17 -77.24 123.79 -77 120 C-77.66 119.67 -78.32 119.34 -79 119 C-79 118.34 -79 117.68 -79 117 C-75.46 115.4 -72.69 114.75 -68.81 114.74 C-67.3 114.73 -67.3 114.73 -65.76 114.72 C-64.68 114.73 -63.61 114.73 -62.5 114.73 C-61.38 114.73 -60.27 114.73 -59.12 114.73 C-56.76 114.73 -54.41 114.73 -52.05 114.74 C-48.45 114.75 -44.84 114.74 -41.24 114.73 C-38.95 114.73 -36.66 114.73 -34.37 114.73 C-33.29 114.73 -32.21 114.73 -31.1 114.72 C-29.59 114.73 -29.59 114.73 -28.06 114.74 C-27.17 114.74 -26.29 114.74 -25.38 114.75 C-22.76 115.03 -21.19 115.54 -19 117 C-17.21 120.51 -16 123.04 -16 127 C-11.88 129 -8.55 129.18 -4 129 C-3.67 128.34 -3.34 127.68 -3 127 C-2.01 127 -1.02 127 0 127 C-0.33 126.01 -0.66 125.02 -1 124 C-0.34 124 0.32 124 1 124 C-0.98 118.05 -3.49 115.14 -9 112 C-12.23 110.61 -15.53 109.51 -18.88 108.44 C-24.74 106.51 -30.42 104.46 -36.04 101.89 C-38.31 100.86 -40.61 99.98 -42.94 99.12 C-56.35 93.72 -67.48 84.79 -73.92 71.6 C-79.48 58.24 -78.1 42.96 -72.69 29.81 C-65.29 17.49 -55.49 8.82 -42.06 3.62 C-41.43 3.37 -40.8 3.12 -40.15 2.87 C-27.61 -1.7 -13.12 -0.19 0 0 Z " fill="#E54A8F" transform="translate(539,492)"/>
<path d="M0 0 C1.26 -0 2.52 -0.01 3.82 -0.01 C7.26 -0.02 10.71 -0.01 14.15 0.01 C17.77 0.03 21.38 0.03 24.99 0.03 C31.05 0.03 37.12 0.05 43.18 0.07 C50.19 0.11 57.19 0.12 64.2 0.11 C71.66 0.11 79.13 0.13 86.6 0.15 C88.74 0.15 90.89 0.15 93.04 0.15 C97.04 0.15 101.05 0.17 105.06 0.2 C106.24 0.19 107.43 0.19 108.65 0.19 C121.4 0.29 121.4 0.29 124.59 3.49 C124.72 6.42 124.78 9.33 124.8 12.26 C124.8 13.14 124.81 14.03 124.81 14.93 C124.82 16.8 124.83 18.67 124.83 20.54 C124.84 23.41 124.87 26.27 124.91 29.14 C124.91 30.95 124.92 32.76 124.92 34.58 C124.93 35.44 124.95 36.3 124.96 37.19 C124.95 39.6 124.95 39.6 124.59 43.49 C121.55 45.52 120.99 45.73 117.58 45.71 C116.78 45.71 115.98 45.71 115.16 45.71 C114.3 45.7 113.44 45.69 112.55 45.68 C111.67 45.68 110.78 45.68 109.87 45.67 C107.05 45.66 104.23 45.64 101.41 45.61 C99.49 45.6 97.58 45.59 95.67 45.58 C90.98 45.56 86.28 45.53 81.59 45.49 C81.6 46.11 81.6 46.73 81.6 47.37 C81.64 62.46 81.68 77.56 81.7 92.66 C81.71 99.96 81.72 107.26 81.74 114.56 C81.76 120.93 81.78 127.29 81.78 133.65 C81.78 137.02 81.79 140.39 81.81 143.76 C81.82 147.52 81.82 151.28 81.82 155.04 C81.83 156.16 81.84 157.28 81.84 158.43 C81.84 159.46 81.84 160.48 81.83 161.53 C81.84 162.42 81.84 163.31 81.84 164.23 C81.59 166.49 81.59 166.49 79.59 169.49 C77.43 169.86 77.43 169.86 74.72 169.86 C73.7 169.86 72.69 169.87 71.64 169.88 C69.99 169.86 69.99 169.86 68.31 169.85 C67.19 169.85 66.06 169.85 64.91 169.85 C62.52 169.85 60.14 169.84 57.76 169.82 C54.11 169.8 50.46 169.8 46.8 169.81 C44.49 169.8 42.18 169.8 39.88 169.79 C38.78 169.79 37.68 169.79 36.55 169.79 C35.53 169.78 34.52 169.77 33.47 169.76 C32.58 169.76 31.68 169.75 30.76 169.75 C28.59 169.49 28.59 169.49 26.59 167.49 C26.33 165.35 26.33 165.35 26.32 162.65 C26.3 161.63 26.29 160.61 26.28 159.56 C26.28 158.43 26.28 157.31 26.28 156.15 C26.27 154.97 26.26 153.79 26.24 152.57 C26.22 149.33 26.2 146.09 26.19 142.85 C26.17 139.46 26.15 136.08 26.12 132.69 C26.07 126.28 26.04 119.86 26 113.45 C25.97 106.15 25.92 98.85 25.87 91.55 C25.76 76.53 25.67 61.51 25.59 46.49 C24.43 46.48 23.27 46.47 22.08 46.46 C17.77 46.42 13.46 46.35 9.15 46.28 C7.29 46.25 5.42 46.23 3.56 46.21 C0.88 46.19 -1.8 46.15 -4.48 46.1 C-5.73 46.09 -5.73 46.09 -7.01 46.09 C-10.78 46 -12.79 45.92 -15.93 43.68 C-18.17 40.35 -18 37.02 -17.97 33.14 C-17.98 32.34 -17.98 31.53 -17.99 30.7 C-18 29 -18 27.3 -17.98 25.6 C-17.97 22.99 -18 20.4 -18.04 17.79 C-18.04 16.14 -18.04 14.48 -18.03 12.83 C-18.05 12.05 -18.06 11.28 -18.08 10.48 C-18.02 7.09 -17.79 4.96 -15.64 2.28 C-10.59 -0.52 -5.68 -0.05 0 0 Z " fill="#E54A8F" transform="translate(883.406005859375,492.51416015625)"/>
<path d="M0 0 C4.55 0.49 4.55 0.49 6.51 2.72 C14.96 15.65 17.18 31.98 15 47 C14.89 47.99 14.77 48.99 14.65 50.01 C12.65 64.87 5.53 80.37 -4 92 C-4.66 92 -5.32 92 -6 92 C-6.23 92.52 -6.45 93.03 -6.69 93.56 C-9.68 99.11 -12.99 103.14 -18 107 C-19.36 108.64 -20.7 110.31 -22 112 C-23.62 113.81 -23.62 113.81 -25 115 C-25.66 115 -26.32 115 -27 115 C-27 115.66 -27 116.32 -27 117 C-28.64 118.36 -30.32 119.69 -32 121 C-32.8 121.8 -33.61 122.61 -34.44 123.44 C-36.33 125.33 -38.18 127.01 -40.25 128.69 C-43.02 130.7 -43.02 130.7 -44 133 C-44.66 133 -45.32 133 -46 133 C-46.33 133.99 -46.66 134.98 -47 136 C-47.66 136 -48.32 136 -49 136 C-49.33 136.99 -49.66 137.98 -50 139 C-50.66 139 -51.32 139 -52 139 C-52.29 139.64 -52.58 140.28 -52.88 140.94 C-54 143 -54 143 -56 144 C-56.66 143.67 -57.32 143.34 -58 143 C-58 142.34 -58 141.68 -58 141 C-59.11 140.81 -59.11 140.81 -60.25 140.62 C-62.81 140.04 -64.69 139.21 -67 138 C-66.86 136.54 -66.71 135.08 -66.56 133.62 C-66.48 132.81 -66.4 132 -66.32 131.16 C-66 129 -66 129 -65 127 C-64.85 124.51 -64.77 122.06 -64.75 119.56 C-64.73 118.88 -64.71 118.2 -64.69 117.5 C-64.64 113.47 -64.64 113.47 -66.52 110.03 C-67.01 109.69 -67.5 109.35 -68 109 C-72.86 111.7 -72.86 111.7 -75.91 116.11 C-76.38 118.05 -76.7 120.03 -77 122 C-77.66 121.67 -78.32 121.34 -79 121 C-79.48 118.46 -79.84 116 -80.12 113.44 C-80.21 112.73 -80.3 112.02 -80.39 111.28 C-80.6 109.52 -80.8 107.76 -81 106 C-84.3 105.67 -87.6 105.34 -91 105 C-91.66 107.97 -92.32 110.94 -93 114 C-94.32 113.34 -95.64 112.68 -97 112 C-96.75 108.62 -96.75 108.62 -96 105 C-94.19 103.94 -94.19 103.94 -92 103 C-90.65 101.01 -89.31 99.01 -88 97 C-87.34 97 -86.68 97 -86 97 C-85.75 96.44 -85.5 95.89 -85.25 95.31 C-82.95 91.05 -80.11 87.6 -76 85 C-75.34 85 -74.68 85 -74 85 C-73.5 83.51 -73.5 83.51 -73 82 C-72.34 82 -71.68 82 -71 82 C-71 81.34 -71 80.68 -71 80 C-69.66 78.81 -69.66 78.81 -67.77 77.5 C-66.73 76.76 -66.73 76.76 -65.67 76.02 C-64.53 75.23 -64.53 75.23 -63.38 74.44 C-62.6 73.9 -61.82 73.36 -61.03 72.8 C-55.33 68.85 -49.54 65.07 -43.69 61.36 C-39.28 58.55 -34.92 55.69 -30.56 52.81 C-29.82 52.33 -29.07 51.84 -28.3 51.34 C-15 42.52 -7.07 32.65 -3 17 C-2.52 13.52 -2.26 10.18 -2.2 6.67 C-2 3.93 -1.4 2.33 0 0 Z M-56 98 C-56 98.66 -56 99.32 -56 100 C-55.34 100 -54.68 100 -54 100 C-54 99.34 -54 98.68 -54 98 C-54.66 98 -55.32 98 -56 98 Z M-58 100 C-60.31 102.31 -62.62 104.62 -65 107 C-64.34 107.66 -63.68 108.32 -63 109 C-61.62 107.71 -60.29 106.37 -59 105 C-59 104.34 -59 103.68 -59 103 C-58.34 103 -57.68 103 -57 103 C-57.33 102.01 -57.66 101.02 -58 100 Z " fill="#427123" transform="translate(831,488)"/>
<path d="M0 0 C0.86 0.07 1.73 0.13 2.62 0.2 C5.52 0.84 7.02 1.66 9.12 3.75 C9.17 6.08 9.17 8.42 9.12 10.75 C10.12 11.41 11.11 12.07 12.12 12.75 C12.23 12.11 12.34 11.47 12.46 10.82 C12.62 9.99 12.77 9.16 12.94 8.31 C13.09 7.49 13.24 6.67 13.39 5.82 C13.64 5.13 13.88 4.45 14.12 3.75 C17.84 2.51 20.31 3.04 24.12 3.75 C26.14 5.76 25.85 9.54 26.19 12.31 C26.32 13.38 26.32 13.38 26.46 14.47 C26.69 16.23 26.91 17.99 27.12 19.75 C27.28 19.2 27.44 18.64 27.61 18.07 C28.32 15.85 29.04 13.81 30.12 11.75 C32.75 10.44 32.75 10.44 35.12 9.75 C35.46 8.76 35.78 7.77 36.12 6.75 C37.12 6.75 38.11 6.75 39.12 6.75 C42.99 12.9 41.8 22.32 40.45 29.18 C39.75 31.74 39 34.25 38.12 36.75 C38.75 36.93 39.38 37.11 40.02 37.3 C41.25 37.68 41.25 37.68 42.5 38.06 C43.31 38.31 44.12 38.55 44.96 38.8 C47.12 39.75 47.12 39.75 49.12 42.75 C49.56 44.94 49.56 44.94 49.12 47.75 C48.31 48.94 47.47 50.12 46.61 51.27 C43.44 56.21 43.57 60.47 43.88 66.19 C43.94 67.98 43.99 69.77 44.05 71.56 C44.1 72.73 44.1 72.73 44.16 73.93 C44.12 75.75 44.12 75.75 43.12 76.75 C35.77 77.58 29.53 75.39 23.12 71.75 C22.79 70.76 22.47 69.77 22.12 68.75 C21.01 69.21 21.01 69.21 19.88 69.69 C15.66 71.32 12.19 71.88 7.66 71.88 C6.61 71.88 5.57 71.89 4.49 71.89 C3.4 71.88 2.31 71.88 1.19 71.88 C-0.44 71.88 -0.44 71.88 -2.1 71.89 C-3.67 71.88 -3.67 71.88 -5.28 71.88 C-6.23 71.88 -7.18 71.88 -8.17 71.88 C-10.84 71.75 -13.27 71.33 -15.88 70.75 C-16.67 70.62 -17.46 70.49 -18.27 70.36 C-25.39 69.13 -30.89 66.74 -36.88 62.75 C-36.88 62.09 -36.88 61.43 -36.88 60.75 C-37.53 60.42 -38.2 60.09 -38.88 59.75 C-39.37 58.26 -39.37 58.26 -39.88 56.75 C-40.82 56.03 -41.77 55.31 -42.75 54.56 C-46.42 51.64 -47.96 48.31 -48.88 43.75 C-48.56 40.75 -48.56 40.75 -47.88 38.75 C-42.92 38.25 -42.92 38.25 -37.88 37.75 C-38.52 35.79 -39.17 33.83 -39.81 31.88 C-40.17 30.78 -40.53 29.69 -40.9 28.57 C-41.77 25.84 -41.77 25.84 -42.88 23.75 C-43.82 12.51 -43.82 12.51 -39.88 7.75 C-36 8.32 -33.76 10.18 -30.88 12.75 C-29.52 15.46 -29.81 17.76 -29.88 20.75 C-29.22 20.75 -28.55 20.75 -27.88 20.75 C-27.64 19.05 -27.64 19.05 -27.39 17.32 C-27.16 15.84 -26.92 14.36 -26.69 12.88 C-26.59 12.13 -26.49 11.38 -26.38 10.61 C-26.02 8.45 -26.02 8.45 -24.88 4.75 C-21.59 2.76 -18.68 2.26 -14.88 2.75 C-12.56 4.25 -12.56 4.25 -10.88 5.75 C-10.26 4.95 -9.64 4.14 -9 3.31 C-5.96 -0.35 -4.57 -0.41 0 0 Z " fill="#E54A8F" transform="translate(725.875,589.25)"/>
<path d="M0 0 C0.73 -0.01 1.46 -0.02 2.22 -0.02 C3.77 -0.04 5.33 -0.05 6.89 -0.06 C9.24 -0.07 11.6 -0.12 13.95 -0.16 C22.07 -0.24 28.58 0.05 35.78 4.24 C35.78 4.9 35.78 5.56 35.78 6.24 C36.38 6.47 36.98 6.69 37.59 6.93 C40.37 8.59 41.26 10.41 42.78 13.24 C43.44 14.23 44.1 15.22 44.78 16.24 C45.84 25.24 45.72 32.67 40.39 40.32 C37.39 43.9 37.39 43.9 35.78 45.24 C34.79 45.24 33.8 45.24 32.78 45.24 C32.78 45.9 32.78 46.56 32.78 47.24 C32.12 47.9 31.46 48.56 30.78 49.24 C31.48 49.88 32.18 50.52 32.91 51.18 C38.32 56.61 42 63.46 45.61 70.16 C46.68 72.07 47.84 73.83 49.09 75.61 C50.78 78.24 50.78 78.24 50.78 81.24 C51.44 81.24 52.1 81.24 52.78 81.24 C52.45 82.89 52.12 84.54 51.78 86.24 C41.67 86.87 41.67 86.87 38.22 84.43 C37.74 83.7 37.27 82.98 36.78 82.24 C36.12 81.25 35.46 80.26 34.78 79.24 C34.78 78.25 34.78 77.26 34.78 76.24 C34.12 76.24 33.46 76.24 32.78 76.24 C32.45 74.59 32.12 72.94 31.78 71.24 C31.12 71.24 30.46 71.24 29.78 71.24 C29.45 69.59 29.12 67.94 28.78 66.24 C28.12 66.24 27.46 66.24 26.78 66.24 C22.78 59.49 22.78 59.49 22.78 57.24 C22.12 57.24 21.46 57.24 20.78 57.24 C20.78 56.25 20.78 55.26 20.78 54.24 C15.5 53.58 10.22 52.92 4.78 52.24 C4.8 54.53 4.83 56.81 4.85 59.17 C4.87 61.38 4.88 63.59 4.89 65.8 C4.9 67.34 4.91 68.88 4.93 70.42 C4.96 72.62 4.97 74.83 4.98 77.04 C4.99 77.73 5 78.42 5.01 79.13 C5.01 80.84 4.9 82.54 4.78 84.24 C2.78 86.24 2.78 86.24 0.69 86.5 C-0.11 86.5 -0.9 86.49 -1.72 86.49 C-2.51 86.49 -3.31 86.5 -4.12 86.5 C-6.22 86.24 -6.22 86.24 -8.22 84.24 C-7.72 83.74 -7.72 83.74 -7.22 83.24 C-7.88 82.58 -8.54 81.92 -9.22 81.24 C-9.38 78.68 -9.42 76.24 -9.37 73.68 C-9.36 72.9 -9.35 72.13 -9.35 71.32 C-9.32 68.74 -9.27 66.16 -9.23 63.58 C-9.21 61.79 -9.18 60 -9.16 58.21 C-9.11 54.46 -9.06 50.71 -9 46.96 C-8.92 42.14 -8.86 37.33 -8.8 32.51 C-8.75 28.82 -8.7 25.12 -8.64 21.43 C-8.62 19.65 -8.59 17.88 -8.57 16.1 C-8.54 13.62 -8.5 11.14 -8.46 8.66 C-8.45 7.92 -8.44 7.18 -8.43 6.42 C-8.3 -0.65 -6.43 0.07 0 0 Z M4.78 12.24 C4.78 21.48 4.78 30.72 4.78 40.24 C8.83 40.33 8.83 40.33 12.97 40.43 C13.81 40.45 14.65 40.48 15.52 40.51 C20.07 40.56 23.12 40.27 26.78 37.24 C26.78 36.58 26.78 35.92 26.78 35.24 C27.44 35.24 28.1 35.24 28.78 35.24 C32.93 30.61 32.06 25.06 31.78 19.24 C31.12 19.24 30.46 19.24 29.78 19.24 C29.49 18.62 29.2 18 28.91 17.36 C27.6 14.9 26.61 13.51 23.91 12.62 C21.78 12.24 19.84 12.12 17.67 12.14 C16.65 12.14 16.65 12.14 15.61 12.15 C14.76 12.16 13.91 12.17 13.03 12.18 C10.31 12.2 7.59 12.22 4.78 12.24 Z " fill="#E54A8F" transform="translate(676.21875,747.76171875)"/>
<path d="M0 0 C0.99 0.03 1.99 0.05 3.01 0.08 C3.77 0.12 4.53 0.15 5.31 0.19 C8.75 5.72 10.9 11.27 12.94 17.44 C13.53 19.21 14.13 20.99 14.73 22.77 C14.98 23.54 15.24 24.32 15.51 25.12 C16.33 27.44 16.33 27.44 18.31 30.19 C18.96 32.32 19.56 34.47 20.12 36.62 C22.02 43.43 24.52 49.71 27.31 56.19 C28.75 59.6 30.16 63.01 31.56 66.44 C31.92 67.28 32.27 68.12 32.63 68.98 C34.72 74.11 35.99 78.65 36.31 84.19 C34.65 85.85 32.71 85.48 30.44 85.56 C29.11 85.64 29.11 85.64 27.76 85.71 C25.31 85.19 25.31 85.19 23.62 83.04 C21.83 79.13 20.62 75.14 19.38 71.03 C18.26 68.06 17.59 66.39 15.31 64.19 C12.6 63.83 10.29 63.72 7.58 63.8 C6.83 63.8 6.08 63.81 5.31 63.81 C2.91 63.84 0.52 63.89 -1.88 63.94 C-3.5 63.96 -5.12 63.98 -6.75 63.99 C-10.73 64.04 -14.71 64.11 -18.69 64.19 C-18.83 65.28 -18.97 66.36 -19.12 67.49 C-19.69 71.17 -20.66 74.08 -22.12 77.5 C-22.56 78.53 -22.99 79.55 -23.43 80.61 C-24.69 83.19 -24.69 83.19 -26.69 85.19 C-29.07 85.38 -29.07 85.38 -31.81 85.31 C-32.72 85.29 -33.63 85.28 -34.57 85.26 C-35.27 85.23 -35.97 85.21 -36.69 85.19 C-37.76 81.28 -37.64 79.19 -36 75.5 C-35.62 74.63 -35.25 73.76 -34.86 72.86 C-34.48 71.98 -34.09 71.1 -33.69 70.19 C-33.01 68.54 -32.35 66.9 -31.69 65.25 C-31.36 64.43 -31.03 63.61 -30.69 62.76 C-29.64 60.06 -28.66 57.35 -27.69 54.62 C-26.18 50.42 -24.47 46.37 -22.63 42.3 C-20.59 37.72 -18.86 33.15 -17.75 28.25 C-16.86 24.48 -15.4 21.19 -13.76 17.7 C-12.1 13.83 -10.93 9.82 -9.71 5.79 C-7.62 0.5 -5.59 -0.2 0 0 Z M-1.69 18.19 C-2 19.09 -2.32 20 -2.64 20.93 C-6.56 32.09 -6.56 32.09 -8.81 36.88 C-11.24 42.17 -11.24 42.17 -13.69 52.19 C-5.11 52.19 3.47 52.19 12.31 52.19 C11.32 49.22 10.33 46.25 9.31 43.19 C8.97 42.14 8.63 41.08 8.29 40 C4.59 28.45 4.59 28.45 -1.69 18.19 Z " fill="#E54A8F" transform="translate(596.6875,747.8125)"/>
<path d="M0 0 C1.37 0 1.37 0 2.76 0.01 C3.69 0.01 4.62 0 5.57 0 C7.54 0 9.51 0 11.47 0.01 C14.5 0.01 17.52 0.01 20.54 0 C22.45 0 24.35 0 26.26 0.01 C27.17 0 28.08 0 29.02 0 C35.39 0.02 35.39 0.02 36.51 1.14 C36.61 2.64 36.64 4.14 36.63 5.64 C36.64 6.86 36.64 6.86 36.64 8.11 C36.51 10.14 36.51 10.14 35.51 11.14 C33.29 11.3 31.07 11.39 28.85 11.46 C28.18 11.48 27.52 11.5 26.84 11.52 C24.71 11.58 22.58 11.64 20.45 11.7 C19.01 11.74 17.56 11.79 16.12 11.83 C12.59 11.94 9.05 12.04 5.51 12.14 C5.51 20.39 5.51 28.64 5.51 37.14 C14.75 37.14 23.99 37.14 33.51 37.14 C35.81 42.89 35.81 42.89 34.51 47.14 C33.51 48.14 33.51 48.14 30.82 48.25 C29.66 48.25 28.49 48.24 27.29 48.24 C26.03 48.23 24.77 48.23 23.47 48.23 C22.13 48.22 20.79 48.21 19.45 48.2 C18.1 48.2 16.76 48.19 15.41 48.19 C12.11 48.18 8.81 48.16 5.51 48.14 C5.51 57.05 5.51 65.96 5.51 75.14 C7.82 75.14 10.13 75.14 12.51 75.14 C12.84 74.48 13.17 73.82 13.51 73.14 C13.51 73.8 13.51 74.46 13.51 75.14 C14.15 75.13 14.8 75.12 15.46 75.11 C18.4 75.07 21.33 75.04 24.26 75.01 C25.27 75 26.29 74.98 27.34 74.96 C28.32 74.96 29.3 74.95 30.31 74.94 C31.21 74.93 32.11 74.92 33.04 74.91 C35.65 75.15 37.27 75.82 39.51 77.14 C39.63 80.51 39.63 80.51 39.51 84.14 C37.51 86.14 37.51 86.14 35.6 86.39 C34.44 86.38 34.44 86.38 33.26 86.38 C31.94 86.39 31.94 86.39 30.6 86.39 C29.18 86.38 29.18 86.38 27.72 86.37 C26.75 86.37 25.78 86.37 24.78 86.37 C22.72 86.37 20.67 86.36 18.61 86.34 C15.46 86.33 12.3 86.32 9.14 86.32 C7.15 86.32 5.15 86.31 3.16 86.31 C2.21 86.31 1.26 86.3 0.28 86.3 C-0.6 86.3 -1.47 86.29 -2.37 86.28 C-3.53 86.28 -3.53 86.28 -4.71 86.27 C-6.49 86.14 -6.49 86.14 -7.49 85.14 C-7.59 82.53 -7.63 79.94 -7.62 77.33 C-7.62 76.51 -7.62 75.69 -7.63 74.85 C-7.63 72.14 -7.63 69.42 -7.62 66.7 C-7.62 64.82 -7.63 62.94 -7.63 61.06 C-7.63 57.12 -7.63 53.17 -7.62 49.23 C-7.62 44.16 -7.62 39.09 -7.63 34.03 C-7.63 30.14 -7.63 26.26 -7.63 22.38 C-7.62 20.51 -7.63 18.64 -7.63 16.77 C-7.63 14.16 -7.63 11.56 -7.62 8.95 C-7.62 8.17 -7.62 7.39 -7.63 6.58 C-7.6 -0.34 -6.83 0.03 0 0 Z " fill="#DF488B" transform="translate(770.4912109375,747.8610534667969)"/>
<path d="M0 0 C0.5 0.99 0.5 0.99 1 2 C3.12 2.54 3.12 2.54 5.62 2.88 C10.52 3.75 13.85 5.29 18 8 C17.35 11.51 16.25 14.21 14 17 C10.77 17.49 8.74 17.33 5.75 16 C-1.26 13.46 -10.56 14.07 -17.5 16.62 C-23.93 19.65 -28.72 23.65 -32 30 C-35.83 43.19 -36.46 54.67 -30 67 C-30 67.99 -30 68.98 -30 70 C-29.34 70 -28.68 70 -28 70 C-25.88 71.88 -25.88 71.88 -24 74 C-24 74.66 -24 75.32 -24 76 C-22.98 76.19 -22.98 76.19 -21.94 76.38 C-17.54 77.31 -13.26 78.58 -9 80 C-8.67 79.34 -8.34 78.68 -8 78 C-6.24 78.31 -6.24 78.31 -4.44 78.62 C-0.19 79.16 2.92 78.36 7 77 C12.4 75.65 12.4 75.65 14.81 77.06 C16.39 79.64 16.67 82.02 17 85 C8.1 92.21 -4.06 91.74 -15 91 C-25.66 89.39 -33.7 84.35 -40.5 76.07 C-46.68 67.54 -48.38 58.48 -48.31 48.12 C-48.31 47.24 -48.31 46.36 -48.3 45.45 C-48.2 39.23 -47.49 33.76 -45 28 C-44.75 27.22 -44.5 26.44 -44.24 25.64 C-42.59 22.13 -40.18 19.54 -37.56 16.75 C-37.07 16.21 -36.58 15.67 -36.08 15.11 C-33.75 12.6 -32.29 11.1 -29 10 C-29 9.34 -29 8.68 -29 8 C-24.35 5.82 -20.08 3.92 -15 3 C-14.34 2.34 -13.68 1.68 -13 1 C-9.96 1.02 -9.96 1.02 -6.38 1.38 C-5.19 1.49 -4 1.6 -2.77 1.71 C-1.86 1.81 -0.94 1.9 0 2 C0 1.34 0 0.68 0 0 Z " fill="#E54A8F" transform="translate(513,744)"/>
<path d="M0 0 C1.59 2.82 1.59 2.82 2.94 6.56 C3.18 7.23 3.43 7.89 3.68 8.57 C4.2 9.99 4.71 11.4 5.22 12.82 C6 14.99 6.81 17.15 7.64 19.31 C14.5 37.18 14.5 37.18 14 43 C13.5 43.99 13.5 43.99 13 45 C9.96 46.01 7.89 46.13 4.71 46.13 C3.18 46.13 3.18 46.13 1.61 46.14 C0.54 46.13 -0.53 46.13 -1.62 46.12 C-2.7 46.13 -3.78 46.13 -4.88 46.14 C-5.9 46.14 -6.92 46.13 -7.98 46.13 C-8.92 46.13 -9.86 46.13 -10.82 46.13 C-13 46 -13 46 -14 45 C-14.93 45.08 -15.86 45.16 -16.81 45.25 C-20 45 -20 45 -22.25 42.81 C-26.16 36.53 -26.45 32.22 -25 25 C-23.1 18.6 -20.52 13.88 -16 9 C-15.34 8.01 -14.68 7.02 -14 6 C-6.28 -2.33 -6.28 -2.33 0 0 Z " fill="#417022" transform="translate(801,621)"/>
<path d="M0 0 C0.03 3.31 0.05 6.62 0.06 9.94 C0.07 10.88 0.08 11.83 0.09 12.8 C0.09 14.15 0.09 14.15 0.1 15.53 C0.11 16.78 0.11 16.78 0.11 18.05 C0 20 0 20 -1 21 C-8.58 21.86 -14.2 19.17 -21 16 C-21 13 -21 13 -19.88 11.31 C-17.24 9.46 -15.14 9.79 -12 10 C-11.79 9.44 -11.59 8.89 -11.38 8.31 C-9.1 4.48 -4.83 0 0 0 Z " fill="#427223" transform="translate(770,645)"/>
<path d="M0 0 C0.66 0.33 1.32 0.66 2 1 C2.93 3.79 3.13 5.5 3.13 8.38 C3.13 9.22 3.14 10.06 3.14 10.92 C3.13 11.79 3.13 12.66 3.12 13.56 C3.13 14.44 3.13 15.31 3.14 16.22 C3.14 17.05 3.13 17.89 3.13 18.75 C3.13 19.52 3.13 20.29 3.13 21.08 C3 23 3 23 2 25 C1.73 27.3 1.56 29.6 1.38 31.91 C1 34 1 34 -1 36 C-2.71 30.53 -2.19 24.67 -2.19 18.99 C-2.19 16.88 -2.21 14.76 -2.22 12.64 C-2.23 11.3 -2.23 9.96 -2.23 8.62 C-2.23 7.4 -2.24 6.18 -2.24 4.92 C-2 2 -2 2 0 0 Z " fill="#50612B" transform="translate(725,600)"/>
<path d="M0 0 C0.66 0.33 1.32 0.66 2 1 C2.51 7.56 1.05 12.73 -1.03 18.95 C-2.05 21.93 -2.05 21.93 -2.5 24.83 C-2.67 25.55 -2.83 26.26 -3 27 C-3.66 27.33 -4.32 27.66 -5 28 C-5.9 24.37 -5.99 21.66 -5.29 17.99 C-5.12 17.07 -4.94 16.14 -4.76 15.19 C-4.57 14.24 -4.38 13.29 -4.19 12.31 C-3.92 10.87 -3.92 10.87 -3.65 9.4 C-2.26 2.26 -2.26 2.26 0 0 Z " fill="#6C4339" transform="translate(737,608)"/>
<path d="M0 0 C0.99 0.33 1.98 0.66 3 1 C3.81 3.05 3.81 3.05 4.44 5.75 C5.82 11.36 7.48 16.84 9.23 22.35 C10 25 10 25 10 27 C8.68 26.67 7.36 26.34 6 26 C5.73 25.02 5.45 24.03 5.17 23.02 C4.39 20.3 3.56 17.61 2.68 14.92 C2.45 14.24 2.23 13.55 2 12.84 C1.54 11.43 1.07 10.02 0.59 8.61 C-1.11 3.33 -1.11 3.33 0 0 Z " fill="#7A3641" transform="translate(710,608)"/>
<path d="M0 0 C-3.35 2.23 -4.42 2.24 -8.32 2.2 C-9.87 2.19 -9.87 2.19 -11.44 2.18 C-12.51 2.16 -13.58 2.14 -14.69 2.12 C-15.77 2.12 -16.85 2.11 -17.97 2.1 C-20.65 2.07 -23.32 2.04 -26 2 C-26 1.67 -26 1.34 -26 1 C-17.27 -1.97 -9.05 -1.06 0 0 Z " fill="#000000" transform="translate(814,665)"/>
<path d="M0 0 C3.2 0.03 6.14 0.35 9.25 1.12 C8.92 1.78 8.59 2.45 8.25 3.12 C-1.32 3.12 -10.89 3.12 -20.75 3.12 C-20.75 2.79 -20.75 2.47 -20.75 2.12 C-19.61 2.06 -18.46 2 -17.29 1.94 C-15.79 1.86 -14.3 1.77 -12.81 1.69 C-12.06 1.65 -11.3 1.61 -10.53 1.57 C-6.6 1.34 -3.76 0.13 0 0 Z " fill="#000000" transform="translate(663.75,663.875)"/>
<path d="M0 0 C0.33 0 0.66 0 1 0 C1.19 4.09 1.37 8.19 1.54 12.28 C1.6 13.67 1.66 15.07 1.72 16.46 C1.82 18.46 1.9 20.46 1.98 22.46 C2.03 23.67 2.08 24.87 2.14 26.11 C2 29 2 29 0 31 C-1.11 27.49 -1.03 24.37 -0.88 20.7 C-0.83 19.5 -0.78 18.29 -0.73 17.05 C-0.68 15.8 -0.62 14.54 -0.56 13.25 C-0.51 11.98 -0.46 10.71 -0.4 9.4 C-0.27 6.27 -0.14 3.13 0 0 Z " fill="#8A234A" transform="translate(724,605)"/>
<path d="M0 0 C12.54 0 25.08 0 38 0 C38 0.33 38 0.66 38 1 C25.46 1 12.92 1 0 1 C0 0.67 0 0.34 0 0 Z " fill="#000000" transform="translate(99,637)"/>
<path d="M0 0 C11.55 0 23.1 0 35 0 C35 0.33 35 0.66 35 1 C23.45 1 11.9 1 0 1 C0 0.67 0 0.34 0 0 Z " fill="#000000" transform="translate(1118,637)"/>
<path d="M0 0 C3.37 0.55 5.08 1.05 8 3 C7.67 5.64 7.34 8.28 7 11 C6.01 10.67 5.02 10.34 4 10 C3.34 8.22 3.34 8.22 2.94 6.06 C2.3 2.65 2.3 2.65 0 0 Z " fill="#8C244C" transform="translate(692,600)"/>
<path d="M0 0 C7.92 0 15.84 0 24 0 C24 0.33 24 0.66 24 1 C16.08 1 8.16 1 0 1 C0 0.67 0 0.34 0 0 Z " fill="#E64B90" transform="translate(770,746)"/>
<path d="M0 0 C7.26 0 14.52 0 22 0 C22 0.33 22 0.66 22 1 C14.74 1 7.48 1 0 1 C0 0.67 0 0.34 0 0 Z " fill="#E64B90" transform="translate(471,605)"/>
<path d="M0 0 C6.6 0 13.2 0 20 0 C20 0.33 20 0.66 20 1 C13.4 1 6.8 1 0 1 C0 0.67 0 0.34 0 0 Z " fill="#E64B90" transform="translate(675,746)"/>
<path d="M0 0 C3.96 0 7.92 0 12 0 C12 0.33 12 0.66 12 1 C8.04 1 4.08 1 0 1 C0 0.67 0 0.34 0 0 Z " fill="#E64B90" transform="translate(783,783)"/>
<path d="M0 0 C1.65 0 3.3 0 5 0 C5 0.33 5 0.66 5 1 C3.35 1 1.7 1 0 1 C0 0.67 0 0.34 0 0 Z " fill="#E64B90" transform="translate(689,786)"/>
<path d="M0 0 C1.65 0 3.3 0 5 0 C5 0.33 5 0.66 5 1 C3.35 1 1.7 1 0 1 C0 0.67 0 0.34 0 0 Z " fill="#E64B90" transform="translate(518,490)"/>
<path d="M0 0 C4 1 4 1 4 1 Z " fill="#E64B90" transform="translate(530,490)"/>
<path d="M0 0 C3 1 3 1 3 1 Z " fill="#8A234A" transform="translate(638,666)"/>
<path d="M0 0 C3 1 3 1 3 1 Z " fill="#E64B90" transform="translate(503,605)"/>
<path d="M0 0 C3 1 3 1 3 1 Z " fill="#E64B90" transform="translate(466,605)"/>
<path d="M0 0 C3 1 3 1 3 1 Z " fill="#E64B90" transform="translate(1132,594)"/>
<path d="M0 0 C3 1 3 1 3 1 Z " fill="#E64B90" transform="translate(526,490)"/>
<path d="M0 0 C2 1 2 1 2 1 Z " fill="#E64B90" transform="translate(764,746)"/>
<path d="M0 0 C2 1 2 1 2 1 Z " fill="#E64B90" transform="translate(507,605)"/>
<path d="M0 0 C2 1 2 1 2 1 Z " fill="#E64B90" transform="translate(253,493)"/>
<path d="" fill="#E64B90" transform="translate(0,0)"/>
<path d="" fill="#8A234A" transform="translate(0,0)"/>
<path d="" fill="#000000" transform="translate(0,0)"/>
<path d="" fill="#E64B90" transform="translate(0,0)"/>
<path d="" fill="#E64B90" transform="translate(0,0)"/>
<path d="" fill="#8A234A" transform="translate(0,0)"/>
<path d="" fill="#000000" transform="translate(0,0)"/>
<path d="" fill="#427223" transform="translate(0,0)"/>
<path d="" fill="#427223" transform="translate(0,0)"/>
<path d="" fill="#000000" transform="translate(0,0)"/>
<path d="" fill="#000000" transform="translate(0,0)"/>
<path d="" fill="#427223" transform="translate(0,0)"/>
<path d="" fill="#427223" transform="translate(0,0)"/>
<path d="" fill="#E64B90" transform="translate(0,0)"/>
<path d="" fill="#E64B90" transform="translate(0,0)"/>
<path d="" fill="#E64B90" transform="translate(0,0)"/>
<path d="" fill="#427223" transform="translate(0,0)"/>
<path d="" fill="#427223" transform="translate(0,0)"/>
<path d="" fill="#427223" transform="translate(0,0)"/>
<path d="" fill="#427223" transform="translate(0,0)"/>
<path d="" fill="#427223" transform="translate(0,0)"/>
</svg>
